<svg width="100" height="41" viewBox="0 0 100 41" fill="none" xmlns="http://www.w3.org/2000/svg">
<path d="M8.67228 12.2373C11.1039 12.2373 13.1388 12.4673 14.7769 12.9271C16.4407 13.3615 17.6821 14.0896 18.5012 15.1115C19.3458 16.1079 19.7682 17.462 19.7682 19.1738C19.7682 20.1958 19.6018 21.1283 19.269 21.9713C18.9363 22.8145 18.45 23.5043 17.8101 24.0407C17.1958 24.5773 16.4407 24.9222 15.5448 25.0754V25.2671C16.4663 25.446 17.2981 25.7652 18.0404 26.2252C18.7827 26.6851 19.3714 27.3492 19.8067 28.2179C20.2417 29.0866 20.4593 30.2363 20.4593 31.6669C20.4593 33.3276 20.0496 34.7584 19.2306 35.9591C18.4372 37.1344 17.2853 38.0414 15.7752 38.68C14.265 39.2931 12.4733 39.5999 10.4 39.5999H0.148804V12.2373H8.67228ZM9.32497 23.0827C11.0143 23.0827 12.1789 22.8145 12.8188 22.2778C13.4843 21.7414 13.8171 20.9621 13.8171 19.9402C13.8171 18.8927 13.4332 18.139 12.6653 17.6792C11.8974 17.2193 10.6816 16.9893 9.01782 16.9893H5.9463V23.0827H9.32497ZM5.9463 27.6815V34.8094H9.74731C11.4878 34.8094 12.7037 34.4773 13.3948 33.813C14.0858 33.1232 14.4314 32.2162 14.4314 31.0921C14.4314 30.4023 14.2778 29.8019 13.9707 29.2909C13.6891 28.78 13.19 28.3839 12.4733 28.1031C11.7566 27.822 10.784 27.6815 9.55535 27.6815H5.9463ZM31.2049 18.6756V39.5999H25.4841V18.6756H31.2049ZM28.3637 10.4745C29.2082 10.4745 29.9377 10.6789 30.552 11.0876C31.1665 11.4709 31.4736 12.199 31.4736 13.272C31.4736 14.3195 31.1665 15.0477 30.552 15.4564C29.9377 15.8652 29.2082 16.0696 28.3637 16.0696C27.4934 16.0696 26.751 15.8652 26.1368 15.4564C25.548 15.0477 25.2538 14.3195 25.2538 13.272C25.2538 12.199 25.548 11.4709 26.1368 11.0876C26.751 10.6789 27.4934 10.4745 28.3637 10.4745ZM46.0128 35.4227C46.6528 35.4227 47.2671 35.3587 47.8558 35.231C48.4445 35.1033 49.0332 34.9499 49.6219 34.7711V39.0249C49.0077 39.2805 48.2397 39.4977 47.3183 39.6764C46.4225 39.8808 45.437 39.9832 44.3619 39.9832C43.1077 39.9832 41.9815 39.7786 40.9833 39.3698C40.0106 38.9611 39.23 38.2584 38.6413 37.2621C38.0781 36.2402 37.7966 34.8351 37.7966 33.0465V22.9676H35.0706V20.5533L38.2189 18.6372L39.8698 14.2301H43.5174V18.6756H49.3916V22.9676H43.5174V33.0465C43.5174 33.8385 43.7477 34.439 44.2084 34.8477C44.669 35.231 45.2706 35.4227 46.0128 35.4227Z" fill="#FFC932"/>
<path d="M55.351 15.3135L55.192 19.8631C55.1797 20.2143 55.4962 20.4869 55.8423 20.4234L60.3043 19.6056C60.7585 19.5223 60.915 18.9517 60.5662 18.6493L56.2633 14.9174C55.9134 14.6139 55.3672 14.851 55.351 15.3135Z" fill="#677FFF"/>
<path d="M96.3634 0.0638428H58.888C56.9096 0.0638428 55.3058 1.66467 55.3058 3.6394V16.2915C55.3058 18.2662 56.9096 19.867 58.888 19.867H96.3634C98.3418 19.867 99.9456 18.2662 99.9456 16.2915V3.6394C99.9456 1.66467 98.3418 0.0638428 96.3634 0.0638428Z" fill="#677FFF"/>
<path d="M68.3701 15.4811H66.2156V7.10694H63.4475V5.31247H71.138V7.10694H68.3701V15.4811ZM74.5913 7.54843C75.6376 7.54843 76.4366 7.77629 76.9883 8.23203C77.5495 8.67827 77.8303 9.36662 77.8303 10.2971V15.4811H76.3463L75.9325 14.4272H75.8754C75.6566 14.7025 75.4283 14.9304 75.1905 15.1108C74.9624 15.2912 74.696 15.4194 74.3915 15.4953C74.0966 15.5808 73.7305 15.6235 73.2929 15.6235C72.8362 15.6235 72.4226 15.538 72.0515 15.3671C71.6901 15.1867 71.4047 14.9161 71.1954 14.5554C70.9861 14.1851 70.8816 13.7198 70.8816 13.1597C70.8816 12.3336 71.1717 11.726 71.7519 11.3367C72.3323 10.938 73.2026 10.7196 74.3629 10.6816L75.7184 10.6389V10.2971C75.7184 9.88882 75.6091 9.58975 75.3903 9.39984C75.181 9.20996 74.8861 9.11501 74.5057 9.11501C74.1251 9.11501 73.7542 9.17199 73.3929 9.28592C73.0313 9.39036 72.6699 9.52328 72.3083 9.68468L71.6093 8.24626C72.0277 8.0279 72.4891 7.85699 72.9932 7.73357C73.5069 7.61014 74.0396 7.54843 74.5913 7.54843ZM74.8909 11.9064C74.2061 11.9254 73.7305 12.0488 73.4641 12.2767C73.1978 12.5045 73.0645 12.8036 73.0645 13.1739C73.0645 13.4967 73.1598 13.7293 73.3499 13.8718C73.5402 14.0047 73.7875 14.0711 74.0919 14.0711C74.5485 14.0711 74.9336 13.9382 75.2477 13.6724C75.5616 13.397 75.7184 13.0125 75.7184 12.5188V11.8779L74.8909 11.9064ZM82.1323 15.4811H80.0063V4.65735H82.1323V15.4811ZM86.4796 9.49954C86.4796 9.79386 86.4653 10.0882 86.4368 10.3825C86.4178 10.6674 86.394 10.957 86.3655 11.2513H86.394C86.4891 11.1184 86.5843 10.9854 86.6794 10.8525C86.7839 10.7196 86.8887 10.5867 86.9932 10.4537C87.098 10.3208 87.2073 10.1926 87.3214 10.0692L89.5045 7.70509H91.9016L88.8053 11.0804L92.0871 15.4811H89.6328L87.3928 12.3336L86.4796 13.06V15.4811H84.3536V4.65735H86.4796V9.49954Z" fill="white"/>
</svg>
