<svg width="30" height="13" viewBox="0 0 30 13" fill="none" xmlns="http://www.w3.org/2000/svg">
<path d="M2.60169 3.9649C3.33118 3.9649 3.94164 4.0394 4.43309 4.1884C4.93221 4.32912 5.30463 4.56503 5.55035 4.89614C5.80375 5.21898 5.93045 5.6577 5.93045 6.2123C5.93045 6.54343 5.88054 6.84557 5.78072 7.1187C5.6809 7.39189 5.53499 7.61539 5.34302 7.78919C5.15873 7.96306 4.93221 8.07481 4.66345 8.12444V8.18656C4.93989 8.24451 5.18945 8.34794 5.41214 8.49696C5.63482 8.64598 5.81143 8.86115 5.942 9.1426C6.07252 9.42405 6.1378 9.79657 6.1378 10.2601C6.1378 10.7981 6.01489 11.2617 5.7692 11.6508C5.53116 12.0315 5.18561 12.3254 4.73256 12.5323C4.27951 12.731 3.74199 12.8304 3.12001 12.8304H0.0446463V3.9649H2.60169ZM2.7975 7.47879C3.3043 7.47879 3.65369 7.39189 3.84566 7.21802C4.04531 7.04422 4.14513 6.79171 4.14513 6.46063C4.14513 6.12125 4.02995 5.87705 3.79959 5.72806C3.56922 5.57906 3.20448 5.50455 2.70535 5.50455H1.78389V7.47879H2.7975ZM1.78389 8.9688V11.2783H2.9242C3.44636 11.2783 3.8111 11.1707 4.01843 10.9554C4.22576 10.7319 4.32942 10.4381 4.32942 10.0739C4.32942 9.85036 4.28335 9.65581 4.1912 9.49027C4.10674 9.32473 3.957 9.19639 3.74199 9.10539C3.52698 9.01433 3.23519 8.9688 2.86661 8.9688H1.78389ZM9.36147 6.05089V12.8304H7.64523V6.05089H9.36147ZM8.50911 3.39374C8.76248 3.39374 8.98133 3.45995 9.16561 3.5924C9.34994 3.71657 9.44208 3.95248 9.44208 4.30015C9.44208 4.63953 9.34994 4.87545 9.16561 5.00789C8.98133 5.14034 8.76248 5.20656 8.50911 5.20656C8.24802 5.20656 8.02531 5.14034 7.84103 5.00789C7.66442 4.87545 7.57614 4.63953 7.57614 4.30015C7.57614 3.95248 7.66442 3.71657 7.84103 3.5924C8.02531 3.45995 8.24802 3.39374 8.50911 3.39374ZM13.8038 11.477C13.9958 11.477 14.1801 11.4562 14.3567 11.4148C14.5334 11.3735 14.71 11.3238 14.8866 11.2658V12.6441C14.7023 12.7269 14.4719 12.7973 14.1955 12.8552C13.9268 12.9214 13.6311 12.9545 13.3086 12.9545C12.9323 12.9545 12.5945 12.8883 12.295 12.7558C12.0032 12.6234 11.769 12.3957 11.5924 12.0729C11.4234 11.7418 11.339 11.2866 11.339 10.7071V7.44152H10.5212V6.65928L11.4657 6.03847L11.961 4.61056H13.0552V6.05089H14.8175V7.44152H13.0552V10.7071C13.0552 10.9637 13.1243 11.1582 13.2625 11.2907C13.4007 11.4148 13.5812 11.477 13.8038 11.477Z" fill="#FFC932"/>
<path d="M16.6053 4.96156L16.5576 6.43565C16.5539 6.54945 16.6488 6.63776 16.7527 6.6172L18.0913 6.35221C18.2275 6.32523 18.2745 6.14034 18.1699 6.04237L16.879 4.83324C16.774 4.73491 16.6102 4.81174 16.6053 4.96156Z" fill="#677FFF"/>
<path d="M28.909 0.0206909H17.6664C17.0729 0.0206909 16.5917 0.53936 16.5917 1.17917V5.27845C16.5917 5.91826 17.0729 6.43693 17.6664 6.43693H28.909C29.5025 6.43693 29.9837 5.91826 29.9837 5.27845V1.17917C29.9837 0.53936 29.5025 0.0206909 28.909 0.0206909Z" fill="#677FFF"/>
<path d="M20.511 5.01586H19.8647V2.30264H19.0343V1.72123H21.3414V2.30264H20.511V5.01586ZM22.3774 2.44568C22.6913 2.44568 22.931 2.51951 23.0965 2.66717C23.2649 2.81175 23.3491 3.03478 23.3491 3.33625V5.01586H22.9039L22.7797 4.6744H22.7626C22.697 4.76361 22.6285 4.83744 22.5572 4.89589C22.4887 4.95433 22.4088 4.99586 22.3175 5.02047C22.229 5.04816 22.1192 5.062 21.9879 5.062C21.8509 5.062 21.7268 5.03432 21.6155 4.97894C21.507 4.92049 21.4214 4.83282 21.3586 4.71593C21.2958 4.59595 21.2645 4.44522 21.2645 4.26372C21.2645 3.99609 21.3515 3.79921 21.5256 3.67309C21.6997 3.54389 21.9608 3.47314 22.3089 3.46083L22.7155 3.44699V3.33625C22.7155 3.20397 22.6827 3.10707 22.6171 3.04554C22.5543 2.98402 22.4658 2.95325 22.3517 2.95325C22.2376 2.95325 22.1263 2.97172 22.0179 3.00863C21.9094 3.04247 21.801 3.08553 21.6925 3.13783L21.4828 2.67178C21.6083 2.60103 21.7467 2.54566 21.898 2.50567C22.0521 2.46568 22.2119 2.44568 22.3774 2.44568ZM22.4673 3.85766C22.2618 3.86382 22.1192 3.90381 22.0393 3.97763C21.9594 4.05147 21.9194 4.14836 21.9194 4.26834C21.9194 4.37293 21.9479 4.4483 22.005 4.49444C22.0621 4.53751 22.1363 4.55904 22.2276 4.55904C22.3646 4.55904 22.4801 4.51598 22.5743 4.42984C22.6685 4.34063 22.7155 4.21604 22.7155 4.05608V3.84843L22.4673 3.85766ZM24.6397 5.01586H24.0019V1.50897H24.6397V5.01586ZM25.9439 3.07784C25.9439 3.1732 25.9396 3.26857 25.9311 3.36393C25.9254 3.45622 25.9182 3.55004 25.9097 3.6454H25.9182C25.9467 3.60234 25.9753 3.55927 26.0038 3.5162C26.0352 3.47314 26.0666 3.43007 26.098 3.38701C26.1294 3.34394 26.1622 3.30241 26.1964 3.26242L26.8514 2.49644H27.5705L26.6416 3.59004L27.6261 5.01586H26.8899L26.2179 3.99609L25.9439 4.23142V5.01586H25.3061V1.50897H25.9439V3.07784Z" fill="white"/>
</svg>
